HIERARCHY
ROOT Hips
{
	OFFSET -3.958830 18.904000 13.208200
	CHANNELS 6 Xposition Yposition Zposition Zrotation Yrotation Xrotation 
	JOINT LHipJoint
	{
		OFFSET 0.000000 0.000000 0.000000
		CHANNELS 3 Zrotation Yrotation Xrotation
		JOINT LeftUpLeg
		{
			OFFSET 1.800000 -1.400000 0.085000
			CHANNELS 3 Zrotation Yrotation Xrotation
			JOINT LeftLeg
			{
				OFFSET 2.215000 -6.000000 0.000000
				CHANNELS 3 Zrotation Yrotation Xrotation
				JOINT LeftFoot
				{
					OFFSET 2.500000 -6.900000 0.000000
					CHANNELS 3 Zrotation Yrotation Xrotation
					JOINT LeftToeBase
					{
						OFFSET 0.200000 -0.500000 1.950000
						CHANNELS 3 Zrotation Yrotation Xrotation
						End Site
						{
							OFFSET 0.000000 0.000000 0.000000
						}
					}
				}
			}
		}
	}
	JOINT RHipJoint
	{
		OFFSET 0.000000 0.000000 0.000000
		CHANNELS 3 Zrotation Yrotation Xrotation
		JOINT RightUpLeg
		{
			OFFSET -1.800000 -1.400000 0.085000
			CHANNELS 3 Zrotation Yrotation Xrotation
			JOINT RightLeg
			{
				OFFSET -2.215000 -6.000000 0.000000
				CHANNELS 3 Zrotation Yrotation Xrotation
				JOINT RightFoot
				{
					OFFSET -2.500000 -6.900000 0.000000
					CHANNELS 3 Zrotation Yrotation Xrotation
					JOINT RightToeBase
					{
						OFFSET -0.200000 -0.500000 1.950000
						CHANNELS 3 Zrotation Yrotation Xrotation
						End Site
						{
							OFFSET 0.000000 0.000000 0.000000
						}
					}
				}
			}
		}
	}
	JOINT LowerBack
	{
		OFFSET 0.000000 0.000000 0.000000
		CHANNELS 3 Zrotation Yrotation Xrotation
		JOINT Spine
		{
			OFFSET -0.087000 1.940000 -0.288900
			CHANNELS 3 Zrotation Yrotation Xrotation
			JOINT Spine1
			{
				OFFSET 0.000000 1.950000 0.060000
				CHANNELS 3 Zrotation Yrotation Xrotation
				JOINT Neck
				{
					OFFSET 0.000000 0.000000 0.000000
					CHANNELS 3 Zrotation Yrotation Xrotation
					JOINT Neck1
					{
						OFFSET 0.000000 1.600000 0.340000
						CHANNELS 3 Zrotation Yrotation Xrotation
						JOINT Head
						{
							OFFSET 0.000000 1.667000 -0.240000
							CHANNELS 3 Zrotation Yrotation Xrotation
							End Site
							{
								OFFSET 0.000000 0.000000 0.000000
							}
						}
					}
				}
				JOINT LeftShoulder
				{
					OFFSET 0.000000 0.000000 0.000000
					CHANNELS 3 Zrotation Yrotation Xrotation
					JOINT LeftArm
					{
						OFFSET 2.700000 1.550000 -0.730000
						CHANNELS 3 Zrotation Yrotation Xrotation
						JOINT LeftForeArm
						{
							OFFSET 5.450000 0.000000 0.000000
							CHANNELS 3 Zrotation Yrotation Xrotation
							JOINT LeftHand
							{
								OFFSET 3.450000 0.000000 0.000000
								CHANNELS 3 Zrotation Yrotation Xrotation
								JOINT LeftHandIndex1
								{
									OFFSET 0.750000 0.000000 0.000000
									CHANNELS 3 Zrotation Yrotation Xrotation
									End Site
									{
										OFFSET 0.000000 0.000000 0.000000
									}
								}
							}
						}
					}
				}
				JOINT RightShoulder
				{
					OFFSET 0.000000 0.000000 0.000000
					CHANNELS 3 Zrotation Yrotation Xrotation
					JOINT RightArm
					{
						OFFSET -2.700000 1.550000 -0.730000
						CHANNELS 3 Zrotation Yrotation Xrotation
						JOINT RightForeArm
						{
							OFFSET -5.450000 0.000000 0.000000
							CHANNELS 3 Zrotation Yrotation Xrotation
							JOINT RightHand
							{
								OFFSET -3.450000 0.000000 0.000000
								CHANNELS 3 Zrotation Yrotation Xrotation
								JOINT RightHandIndex1
								{
									OFFSET -0.750000 0.000000 0.000000
									CHANNELS 3 Zrotation Yrotation Xrotation
									End Site
									{
										OFFSET 0.000000 0.000000 0.000000
									}
								}
							}
						}
					}
				}
			}
		}
	}
}
MOTION
Frames: 10
Frame Time: 0.016667
-0.888190 16.867740 -0.548790 -4.950797 -4.294185 -4.396731 -15.107710 13.975355 2.704106 16.001389 -1.166106 -19.007857 -0.536833 8.915366 34.730374 0.153972 6.473266 2.152965 0.277650 0.226230 0.148290 18.117978 -11.524914 2.190743 -16.778846 1.146170 -18.916747 3.539590 -6.374141 26.344238 -0.086216 -4.230550 2.812426 0.190830 0.128200 0.093490 -3.360522 -1.732025 -7.227805 6.431736 0.486124 11.395164 3.017910 0.431853 9.653360 0.267928 -2.638376 -10.564211 -6.401345 3.898546 34.446060 0.118520 2.737970 -3.930120 -14.589461 -13.759739 6.236954 -29.664182 -8.416311 -1.780149 -9.871451 -38.648774 2.948276 -3.642124 3.262831 0.055520 0.127190 -0.056210 0.123790 14.729431 17.237721 5.758788 26.981978 15.171522 -4.056206 -2.555636 38.022957 -0.633933 2.166345 -1.452553 -0.030690 0.086450 -0.068560 -0.054540 
-0.849020 17.064370 -0.492650 -5.085142 -3.955907 -4.135196 -15.064354 14.025016 2.645396 14.564513 -0.985979 -17.379532 -1.779134 8.531837 31.214285 0.108214 5.924436 2.372158 0.233130 0.157420 0.138780 18.120505 -11.739000 2.090942 -16.278970 0.631248 -15.395487 2.899742 -6.176785 25.006321 -0.101802 -4.212563 2.854527 0.134650 0.112660 0.090910 -3.422781 -1.550685 -7.063551 6.928234 0.735206 9.947636 3.154127 0.575086 8.926056 0.491195 -2.517564 -10.741201 -5.997853 3.299847 33.539737 -0.130810 2.567970 -3.748160 -13.129892 -10.413731 6.235102 -31.545572 -2.515207 -3.311857 -13.141092 -37.030883 3.552183 -3.627115 3.289865 0.078350 0.109400 -0.051970 0.105070 12.833048 13.758333 5.908154 28.137023 10.180970 -4.370601 -0.031042 34.354159 0.077620 2.234676 -1.428820 -0.035650 0.066180 -0.055560 -0.065130 
-0.796830 17.241820 -0.435350 -5.507874 -3.249021 -4.334417 -15.018054 14.095245 2.678107 13.808591 -0.825253 -15.557556 -3.415429 8.615910 28.871472 0.134305 5.691601 2.477633 0.186820 0.083850 0.129940 18.129502 -11.914871 1.985353 -15.402552 0.236087 -12.193752 1.443525 -6.112380 26.200911 -0.163592 -4.400898 2.821794 0.065990 0.078830 0.080670 -3.506364 -1.498701 -7.027487 8.289283 0.440020 9.229761 2.762698 0.379603 7.470377 0.786654 -2.770953 -10.995119 -6.571556 2.593553 33.831473 -0.413360 1.949220 -3.368280 -12.851196 -7.527437 6.104147 -31.620578 3.916273 -4.909595 -15.968271 -33.589178 3.732392 -3.589441 3.290821 0.115270 0.068990 -0.033670 0.086250 11.886846 10.930777 6.237357 28.015297 4.665979 -4.908761 2.617875 30.624066 0.681276 2.319277 -1.386777 -0.035480 0.042990 -0.047930 -0.073290 
-0.748900 17.398040 -0.375550 -6.134652 -2.175422 -4.819999 -14.975552 14.211688 2.748864 13.321931 -0.693416 -13.876778 -4.645395 8.815770 27.693019 0.184973 5.637940 2.508585 0.165250 0.035950 0.141520 18.139925 -12.059437 1.895283 -13.615521 -0.021299 -9.235346 -1.393016 -5.672317 29.108780 -0.266945 -4.675758 2.759662 0.007800 0.026760 0.070450 -3.597986 -1.561188 -7.054468 10.106384 -0.069262 8.918436 2.070884 0.121294 5.391857 1.117118 -3.269861 -11.107151 -7.817263 2.140892 35.076913 -0.684750 1.335150 -3.480370 -13.003870 -4.542499 5.628043 -30.553646 10.114223 -6.215655 -16.416454 -28.985751 3.064024 -3.544808 3.252909 0.165540 0.014210 0.000660 0.068690 11.240083 8.223172 6.517953 27.024834 -0.856993 -5.325134 5.139712 26.648781 1.057238 2.402052 -1.331251 -0.026510 0.022310 -0.050600 -0.085610 
-0.709160 17.515320 -0.312490 -6.472451 -0.942777 -5.161804 -14.955021 14.302017 2.816101 12.761412 -0.617487 -12.517731 -5.627041 9.112486 27.319164 0.239680 5.691395 2.498414 0.159770 0.018020 0.152270 18.149430 -12.138730 1.851561 -11.281462 -0.009677 -6.926886 -5.323132 -4.725482 33.815384 -0.419501 -5.161220 2.614973 -0.022640 -0.013390 0.060990 -3.664923 -1.651409 -7.082131 11.283830 -0.511931 8.433864 1.425595 -0.091828 2.943079 1.243495 -3.524138 -10.830408 -8.576662 1.891441 36.129086 -0.575390 0.858680 -3.856890 -12.922457 -1.304402 4.814834 -28.136839 15.391273 -6.807777 -15.415250 -23.833437 2.085251 -3.523784 3.205943 0.200670 -0.028090 0.028510 0.059390 10.748421 5.103341 6.412051 26.030988 -5.772696 -5.561988 6.649150 22.423878 1.007898 2.472857 -1.283521 -0.018320 0.010080 -0.057720 -0.092640 
-0.672630 17.596840 -0.233790 -6.772295 -0.266411 -4.866473 -14.935997 14.378447 2.869649 12.017597 -0.564234 -11.309267 -6.332259 9.281806 26.787255 0.281702 5.694910 2.512044 0.130170 -0.032890 0.155460 18.162198 -12.138745 1.906332 -8.659288 0.302871 -5.526033 -9.627829 -3.239352 39.225361 -0.609331 -5.797867 2.414846 -0.069700 -0.041020 0.050660 -3.723082 -1.771667 -7.151931 12.299459 -0.988942 7.441611 0.795925 -0.345726 -0.462678 1.412495 -3.564368 -10.634288 -8.953516 1.836709 37.610257 -0.733590 0.786650 -3.492890 -11.575728 2.419810 4.044922 -26.261701 20.701151 -7.387138 -12.885736 -18.801045 1.002792 -3.527456 3.124321 0.237620 -0.059800 0.046360 0.043130 8.882727 1.432642 6.208474 25.962809 -10.308270 -5.890608 6.407466 17.577043 0.632204 2.553642 -1.210004 -0.023540 -0.001800 -0.052840 -0.105010 
-0.629420 17.633350 -0.156050 -7.001451 0.327014 -4.272555 -14.907195 14.448104 2.855822 10.889537 -0.508753 -10.201725 -6.098138 9.036466 26.107374 0.293202 5.555801 2.576610 0.097300 -0.080520 0.147240 18.199419 -12.065832 2.033956 -6.033503 0.816765 -4.614465 -13.691175 -1.443060 45.269153 -0.848830 -6.650736 2.149923 -0.109790 -0.054890 0.041620 -3.831884 -1.944749 -7.189440 13.707591 -1.447677 6.170304 -0.193121 -0.628750 -3.656640 1.554406 -3.843361 -10.381716 -9.714474 2.193653 38.473997 -1.021480 1.111510 -2.910990 -9.022580 6.442826 3.268785 -23.812094 24.962682 -7.579291 -10.409569 -14.491939 0.229620 -3.551449 3.053057 0.256390 -0.074890 0.050590 0.028890 5.824902 -2.387849 6.047888 26.146894 -14.876839 -6.663434 5.913941 15.021042 0.397307 2.594776 -1.161927 -0.028910 -0.013230 -0.042630 -0.113890 
-0.584860 17.644810 -0.087790 -7.193512 1.210507 -3.494829 -14.902597 14.457591 2.847975 9.921544 -0.413134 -8.968069 -6.323780 8.572268 23.657940 0.275914 5.250602 2.707508 0.068900 -0.116780 0.129980 18.232623 -11.906581 2.197038 -3.259493 1.173159 -3.671148 -17.357422 0.538952 50.870938 -1.115294 -7.569794 1.872762 -0.138510 -0.051640 0.039780 -3.907768 -2.166993 -7.223474 14.819447 -1.939405 4.745442 -1.011947 -1.077288 -6.243144 1.681595 -3.995666 -10.082921 -10.145800 2.352350 38.595417 -1.103980 1.207980 -2.325180 -6.472249 10.018342 2.626762 -20.984251 28.290550 -7.467545 -7.555404 -11.932094 -0.176339 -3.580276 3.013945 0.257970 -0.075650 0.045360 0.022840 2.856572 -5.881718 6.039990 25.175121 -19.410626 -7.147348 4.668770 12.942612 0.178813 2.623469 -1.130002 -0.031320 -0.022800 -0.032450 -0.112790 
-0.547470 17.627150 -0.045870 -7.282964 2.051669 -3.193575 -14.902115 14.428161 2.830686 9.047782 -0.257718 -7.367291 -6.295067 7.937027 20.633190 0.248102 4.906407 2.851921 0.064520 -0.127260 0.131690 18.272417 -11.745725 2.338198 -1.018395 1.318278 -2.743407 -20.383744 2.373188 56.301931 -1.401032 -8.523366 1.588605 -0.150470 -0.060590 0.040930 -3.986051 -2.350994 -7.228192 15.788868 -2.436887 3.650117 -1.973855 -1.635457 -7.320492 1.855822 -4.144638 -9.835619 -10.576350 2.391658 38.623855 -1.282880 1.214400 -2.256550 -3.855976 12.778843 2.240805 -18.831848 30.177242 -7.325951 -5.569392 -10.914401 -0.295195 -3.582842 3.009573 0.262280 -0.082670 0.048710 0.020010 -0.242729 -8.601250 6.231048 24.507862 -23.357162 -7.811322 4.433417 13.417774 0.176505 2.603333 -1.146275 -0.027560 -0.033170 -0.034140 -0.114410 
-0.512210 17.584300 -0.032360 -7.367090 3.274511 -3.627162 -14.889984 14.380919 2.796927 8.333901 -0.078036 -5.497536 -5.497661 7.087756 17.440645 0.211893 4.555666 3.000924 0.079910 -0.110200 0.138280 18.330485 -11.624533 2.413852 0.388644 1.183925 -1.998407 -22.559707 3.667245 62.613867 -1.718003 -9.596758 1.277399 -0.142890 -0.067810 0.040110 -4.119486 -2.487436 -7.175244 17.011786 -3.302242 3.105656 -3.401487 -2.589221 -7.042735 1.849506 -4.584168 -9.526899 -11.506651 2.707285 38.459121 -1.137170 1.136850 -2.789060 -0.824430 15.028665 2.098433 -17.359203 31.043703 -7.409036 -6.061222 -11.496228 -0.221052 -3.531014 3.064612 0.268600 -0.093820 0.056970 0.026620 -3.467882 -10.762292 6.334467 24.635292 -25.617383 -8.740885 6.035770 15.345141 0.333822 2.534278 -1.205586 -0.022720 -0.030870 -0.043360 -0.111720 
